<svg xmlns="http://www.w3.org/2000/svg"  viewBox="0 0 100 100" width="100px" height="100px"><circle cx="13" cy="29" r="2" fill="#78a0cf"/><circle cx="77" cy="13" r="1" fill="#f1bc19"/><circle cx="50" cy="50" r="37" fill="#cee1f4"/><circle cx="83" cy="15" r="4" fill="#f1bc19"/><circle cx="87" cy="24" r="2" fill="#78a0cf"/><circle cx="81" cy="76" r="2" fill="#fbcd59"/><circle cx="15" cy="63" r="4" fill="#fbcd59"/><circle cx="25" cy="87" r="2" fill="#78a0cf"/><circle cx="18.5" cy="53.5" r="2.5" fill="#fff"/><circle cx="21" cy="67" r="1" fill="#f1bc19"/><circle cx="80" cy="34" r="1" fill="#fff"/><path fill="#88ae45" d="M66.719,73H35.281C31.26,73,28,69.74,28,65.719V34.281C28,30.26,31.26,27,35.281,27h31.438	C70.74,27,74,30.26,74,34.281v31.438C74,69.74,70.74,73,66.719,73z"/><path fill="#472b29" d="M66.719,73.7H35.281c-4.401,0-7.981-3.58-7.981-7.981V34.281c0-4.401,3.581-7.981,7.981-7.981 h31.438c4.401,0,7.981,3.58,7.981,7.981v31.438C74.7,70.12,71.12,73.7,66.719,73.7z M35.281,27.7c-3.629,0-6.581,2.952-6.581,6.581 v31.438c0,3.629,2.952,6.581,6.581,6.581h31.438c3.629,0,6.581-2.952,6.581-6.581V34.281c0-3.629-2.952-6.581-6.581-6.581 L35.281,27.7z"/><path fill="#472b29" d="M31.5,40.167c-0.276,0-0.5-0.224-0.5-0.5v-4.333C31,32.393,33.393,30,36.333,30h14 c0.276,0,0.5,0.224,0.5,0.5s-0.224,0.5-0.5,0.5h-14C33.944,31,32,32.944,32,35.333v4.333C32,39.943,31.776,40.167,31.5,40.167z"/><path fill="#472b29" d="M42.583,70h-6.25C33.393,70,31,67.607,31,64.667V44.333c0-0.276,0.224-0.5,0.5-0.5 s0.5,0.224,0.5,0.5v20.333C32,67.056,33.944,69,36.333,69h6.25c0.276,0,0.5,0.224,0.5,0.5S42.86,70,42.583,70z"/><path fill="#472b29" d="M65.667,70h-19.75c-0.276,0-0.5-0.224-0.5-0.5s0.224-0.5,0.5-0.5h19.75 C68.057,69,70,67.056,70,64.667v-5.083c0-0.276,0.224-0.5,0.5-0.5s0.5,0.224,0.5,0.5v5.083C71,67.607,68.607,70,65.667,70z"/><path fill="#472b29" d="M70.5,56.167c-0.276,0-0.5-0.224-0.5-0.5V35.333C70,32.944,68.057,31,65.667,31h-2.75 c-0.276,0-0.5-0.224-0.5-0.5s0.224-0.5,0.5-0.5h2.75C68.607,30,71,32.393,71,35.333v20.333C71,55.943,70.776,56.167,70.5,56.167z"/><path fill="#472b29" d="M59.5,31h-6.25c-0.276,0-0.5-0.224-0.5-0.5s0.224-0.5,0.5-0.5h6.25c0.276,0,0.5,0.224,0.5,0.5 S59.776,31,59.5,31z"/><path fill="#eeecd9" stroke="#472b29" stroke-linecap="round" stroke-linejoin="round" stroke-miterlimit="10" d="M50.5,38.617	c-7.716,0-13.971,5.118-13.971,11.43c0,4.103,2.644,7.7,6.613,9.716c-0.154,1.006-0.649,2.481-2.167,3.62	c0,0,3.819-0.68,5.407-2.411c1.302,0.328,2.685,0.505,4.118,0.505c7.716,0,13.971-5.118,13.971-11.43S58.216,38.617,50.5,38.617z"/></svg>